<svg width="24" height="24" viewBox="0 0 24 24" fill="none" xmlns="http://www.w3.org/2000/svg">
<g clip-path="url(#clip0_1064_821)">
<path d="M9.24251 0C9.09627 0 8.97928 0 8.83304 0C8.5113 0 8.21882 0.0292485 7.89709 0.0877454C7.6046 0.116994 7.31212 0.175491 7.04888 0.263236C7.04888 0.263236 7.04888 0.263236 7.01963 0.263236L15.0337 8.27732C15.7942 9.03778 16.0574 10.0907 15.7942 11.0559C15.6772 11.4654 15.4724 11.8456 15.18 12.1674C14.595 12.8108 13.776 13.1326 12.9278 13.0741C12.8986 13.0741 12.8401 13.0741 12.7816 13.0448C12.1381 12.9571 11.5531 12.6353 11.0852 12.1966L5.99593 7.10738C5.38172 6.49316 4.35802 6.49316 3.71455 7.10738C3.42207 7.42911 3.24658 7.83859 3.24658 8.24807C3.24658 8.68679 3.42207 9.09627 3.71455 9.38876L9.71049 15.4139C10.003 15.7064 10.354 15.9404 10.7342 16.0867C10.8512 16.1452 10.9682 16.1744 11.1144 16.2036L16.2621 17.6368H16.2914L16.3206 17.5783C16.5546 17.1688 16.9056 16.8471 17.3151 16.6131V16.5839V16.5546L17.1688 15.9989L17.1396 15.8527L17.0226 15.4432L16.9641 15.1215L16.3791 13.0156L16.2621 12.6353C16.6716 12.1089 16.9056 11.5239 16.9934 10.9097C17.0226 10.9682 17.0226 11.0267 17.0519 11.0852L17.1688 11.5239L18.0171 14.6535L18.1048 14.946L18.2218 15.3554L18.2803 15.5017L18.4558 16.0867L18.485 16.1452L19.421 19.4795C19.4502 19.538 19.421 19.5965 19.3625 19.6257L19.3332 19.655C19.3332 19.655 19.3332 19.655 19.304 19.655C19.2747 19.655 19.2747 19.655 19.2455 19.655L15.9404 18.7483C15.9404 18.7483 15.9404 18.7483 15.9112 18.7483L10.8219 17.3443C10.0907 17.1396 9.418 16.7594 8.89153 16.2329L2.95409 10.2662C2.7786 10.0907 2.60311 9.85673 2.45687 9.65199C2.42762 9.5935 2.36913 9.535 2.33988 9.44725C2.28138 9.35951 2.25213 9.27176 2.22288 9.18402C2.19363 9.09627 2.16439 9.03778 2.13514 8.95003C2.13514 8.95003 2.13514 8.95003 2.13514 8.92078C2.10589 8.83304 2.10589 8.77454 2.07664 8.68679C2.07664 8.68679 2.07664 8.68679 2.07664 8.65755C2.07664 8.59905 2.04739 8.5113 2.04739 8.45281C2.04739 8.42356 2.04739 8.42356 2.04739 8.39431C2.04739 8.33581 2.04739 8.30656 2.04739 8.24807C2.04739 8.07258 2.04739 7.92633 2.07664 7.75084C2.16439 7.16587 2.42762 6.66865 2.8371 6.25917C3.42207 5.70345 4.18253 5.41097 5.00149 5.44021C5.05998 5.44021 5.11848 5.44021 5.14773 5.46946C5.76195 5.55721 6.31767 5.82044 6.78564 6.25917L11.9919 11.4361C12.3136 11.7579 12.7231 11.9041 13.1326 11.9041C13.1911 11.9041 13.2496 11.9041 13.3081 11.9041C13.3665 11.9041 13.3958 11.9041 13.425 11.8749C13.4543 11.8749 13.5128 11.8456 13.542 11.8456C13.5713 11.8456 13.6005 11.8456 13.6298 11.8164C13.659 11.8164 13.7175 11.7871 13.7468 11.7579C13.776 11.7286 13.8345 11.7286 13.8638 11.6994C13.9223 11.6701 13.9515 11.6409 14.01 11.6116C14.0685 11.5824 14.0978 11.5531 14.127 11.5239C14.2148 11.4654 14.3025 11.3777 14.361 11.2899C14.4195 11.2022 14.478 11.1437 14.5365 11.0559C14.8582 10.471 14.7997 9.73974 14.3317 9.21327C14.3025 9.18402 14.3025 9.15477 14.2733 9.15477L14.2148 9.09627L5.76195 0.672715C5.52796 0.76046 5.29397 0.877454 5.08923 0.994448C4.85525 1.11144 4.65051 1.22844 4.44577 1.34543C1.78416 2.98334 0 5.90819 0 9.21327V14.7412C0 19.8305 4.15328 23.9837 9.24251 23.9837H14.7705C19.8305 23.9837 23.9837 19.8305 23.9837 14.7412V9.21327C23.9837 4.15328 19.8305 0 14.7412 0H9.24251Z" fill="url(#paint0_linear_1064_821)"/>
</g>
<defs>
<linearGradient id="paint0_linear_1064_821" x1="0" y1="0" x2="23.9837" y2="23.9837" gradientUnits="userSpaceOnUse">
<stop stop-color="#2CAFFF"/>
<stop offset="1" stop-color="#833AED"/>
</linearGradient>
<clipPath id="clip0_1064_821">
<rect width="23.9837" height="23.9837" fill="white"/>
</clipPath>
</defs>
</svg>
