<svg width="24" height="24" viewBox="0 0 24 24" fill="none" xmlns="http://www.w3.org/2000/svg">
<rect width="24" height="24" rx="5" fill="url(#paint0_linear_1_2)"/>
<rect width="24" height="24" rx="5" fill="url(#paint1_linear_1_2)"/>
<path d="M16.7987 14.3573V16.2432C16.7987 16.3782 16.7476 16.5082 16.6555 16.607C16.5635 16.7058 16.4374 16.766 16.3027 16.7754C16.0697 16.7914 15.8793 16.8 15.7321 16.8C11.0193 16.8 7.19922 12.9797 7.19922 8.26662C7.19922 8.11942 7.20722 7.92902 7.22375 7.69595C7.2332 7.56125 7.29339 7.43516 7.39217 7.3431C7.49095 7.25105 7.62097 7.19989 7.75599 7.19995H9.64175C9.7079 7.19988 9.77171 7.22441 9.8208 7.26876C9.86988 7.31311 9.90072 7.37413 9.90734 7.43995C9.9196 7.56262 9.9308 7.66022 9.94147 7.73435C10.0475 8.47404 10.2647 9.19346 10.5857 9.86822C10.6364 9.97488 10.6033 10.1024 10.5073 10.1706L9.35643 10.993C10.0601 12.6327 11.3667 13.9394 13.0064 14.6432L13.8277 13.4944C13.8612 13.4474 13.9102 13.4138 13.966 13.3992C14.0219 13.3847 14.0811 13.3902 14.1332 13.4149C14.8079 13.7353 15.5271 13.952 16.2664 14.0576C16.3406 14.0682 16.4382 14.08 16.5598 14.0917C16.6255 14.0984 16.6864 14.1293 16.7306 14.1784C16.7749 14.2275 16.7993 14.2912 16.7992 14.3573H16.7987Z" fill="white"/>
<defs>
<linearGradient id="paint0_linear_1_2" x1="12" y1="0" x2="12" y2="43.7143" gradientUnits="userSpaceOnUse">
<stop stop-color="#27B638"/>
<stop offset="1" stop-color="#1F932D"/>
</linearGradient>
<linearGradient id="paint1_linear_1_2" x1="-7.87302" y1="14.5161" x2="25.0159" y2="14.5158" gradientUnits="userSpaceOnUse">
<stop offset="0.265795" stop-color="#833BEE"/>
<stop offset="1" stop-color="#2EAFFF"/>
</linearGradient>
</defs>
</svg>
