<svg width="114" height="14" viewBox="0 0 114 14" fill="none" xmlns="http://www.w3.org/2000/svg">
<g clip-path="url(#clip0_1064_824)">
<path d="M9.77787 10.9738H9.07945L9.03439 10.881L5.51976 1.13099C5.49723 1.06134 5.42965 0.991699 5.36206 0.991699H4.57352C4.50593 0.991699 4.43834 1.06134 4.39328 1.13099L0.856127 10.9738H0.180238C0.0675896 10.9738 0 11.0667 0 11.1596V13.5042C0 13.6203 0.0901189 13.7131 0.202767 13.7131H0.923717C1.03637 13.7131 1.12648 13.6203 1.12648 13.5042V12.1113H8.85415V13.5042C8.85415 13.6203 8.94427 13.7131 9.05692 13.7131H9.77787C9.89052 13.7131 9.98063 13.6203 9.98063 13.5042V11.1596C9.9581 11.0435 9.86799 10.9738 9.77787 10.9738ZM2.0502 10.9738L2.11779 10.7649L4.95652 2.84884L7.84032 10.9506H2.0502V10.9738Z" fill="black"/>
<path d="M18.9893 3.24348C18.809 2.80241 18.5612 2.40777 18.2458 2.08277C17.9304 1.75777 17.5249 1.4792 17.0968 1.29348C16.6462 1.10777 16.1505 0.991699 15.6098 0.991699H12.1177C12.0276 0.991699 11.9375 1.08456 11.9375 1.20063V11.9256C11.9375 12.0417 12.0276 12.1113 12.1177 12.1113H12.9063C12.9964 12.1113 13.0865 12.0417 13.0865 11.9256V8.35063H15.4521C16.0379 8.35063 16.5786 8.25777 17.0517 8.07206C17.5249 7.88634 17.9304 7.63098 18.2458 7.30598C18.5837 6.98098 18.8316 6.58634 19.0118 6.14527C19.192 5.68098 19.2822 5.19348 19.2822 4.68277C19.2371 4.17206 19.147 3.68456 18.9893 3.24348ZM17.9079 5.65777C17.7952 5.95956 17.615 6.23813 17.3897 6.44706C17.1644 6.6792 16.894 6.86491 16.5786 6.98099C16.2632 7.12027 15.9027 7.18991 15.4972 7.18991H13.0415V2.15241H15.362C15.8126 2.15241 16.2181 2.22206 16.5561 2.36134C16.894 2.50063 17.1644 2.68634 17.4122 2.89527C17.6375 3.12741 17.7952 3.38277 17.9304 3.68456C18.043 3.98634 18.1106 4.31134 18.1106 4.65956C18.0881 5.00777 18.043 5.35598 17.9079 5.65777Z" fill="black"/>
<path d="M28.6233 1.27027L23.6668 11.9953C23.6443 12.0649 23.5767 12.1113 23.5091 12.1113H22.6755C22.6079 12.1113 22.5628 12.0881 22.5178 12.0185C22.4727 11.9488 22.4727 11.8792 22.4952 11.8328L24.0498 8.44348L24.0723 8.37384L20.3099 1.29348C20.2873 1.22384 20.2873 1.1542 20.3099 1.08456C20.3324 1.03813 20.4 0.991699 20.4676 0.991699H21.3688C21.4363 0.991699 21.4814 1.03813 21.5265 1.10777L24.7257 7.0042L27.4518 1.10777C27.4743 1.03813 27.5419 0.991699 27.6095 0.991699H28.4431C28.5107 0.991699 28.5557 1.03813 28.6008 1.08456C28.6458 1.1542 28.6458 1.22384 28.6233 1.27027Z" fill="black"/>
<path d="M37.2553 1.20063V1.9667C37.2553 2.08277 37.1877 2.17563 37.0751 2.17563H32.1861V11.9488C32.1861 12.0649 32.1185 12.1346 32.0059 12.1346H31.2173C31.1272 12.1346 31.0371 12.0417 31.0371 11.9488V1.20063C31.0371 1.08456 31.1272 0.991699 31.2173 0.991699H37.0751C37.1877 0.991699 37.2553 1.08456 37.2553 1.20063Z" fill="black"/>
<path d="M45.5926 11.856L41.5598 1.13099C41.5372 1.03813 41.4696 0.991699 41.4021 0.991699H40.6135C40.5459 0.991699 40.4783 1.03813 40.4333 1.13099L36.423 11.856C36.4005 11.9256 36.4005 11.9953 36.4455 12.0417C36.4681 12.0881 36.5357 12.1113 36.6032 12.1113H37.3918C37.4819 12.1113 37.527 12.0649 37.572 11.9953L38.5633 9.2792H43.3847L44.3985 11.9953C44.4436 12.0649 44.4886 12.1113 44.5562 12.1113H45.4123C45.4574 12.1113 45.525 12.0881 45.5475 12.0417C45.6151 11.9953 45.6151 11.9256 45.5926 11.856ZM39.0139 8.11848L40.9965 2.80241L42.9566 8.11848H39.0139Z" fill="black"/>
<path d="M54.0915 0.991699H50.7571C50.1938 0.991699 49.6982 1.08456 49.2476 1.24706C48.797 1.40956 48.414 1.66491 48.0986 1.9667C47.7832 2.26848 47.5579 2.63991 47.4002 3.05777C47.2425 3.47563 47.1523 3.9167 47.1523 4.4042C47.1523 4.8917 47.2425 5.35598 47.4002 5.77384C47.5804 6.21491 47.8057 6.58634 48.1436 6.88813C48.4591 7.18991 48.8195 7.44527 49.2701 7.60777C49.6982 7.79348 49.8784 7.8167 49.8784 7.8167L50.0812 7.86313L47.4002 11.7631C47.3326 11.8096 47.31 11.9024 47.3326 11.9721C47.3551 12.0417 47.4227 12.0881 47.4903 12.0881H48.3915C48.4365 12.0881 48.4591 12.0881 48.4816 12.0649L51.3879 7.88634H53.1227V11.9256C53.1227 12.0417 53.2128 12.1113 53.3029 12.1113H54.0915C54.1816 12.1113 54.2717 12.0417 54.2717 11.9256V1.20063C54.2492 1.08456 54.1816 0.991699 54.0915 0.991699ZM53.1002 6.74884H50.9824C50.5318 6.74884 50.1263 6.6792 49.7883 6.56313C49.4504 6.44706 49.1575 6.26134 48.9547 6.05241C48.7519 5.8667 48.5717 5.61134 48.4591 5.33277C48.3464 5.0542 48.3014 4.75241 48.3014 4.42741C48.3014 4.10241 48.3464 3.80063 48.4591 3.52206C48.5717 3.24348 48.7294 3.01134 48.9547 2.82563C49.1575 2.6167 49.4504 2.4542 49.7658 2.33813C50.1037 2.22206 50.4867 2.15241 50.9148 2.15241H53.1002V6.74884Z" fill="black"/>
<path d="M73.1019 1.20063V11.9256C73.1019 12.0417 73.0117 12.1113 72.9216 12.1113H61.6568C61.5667 12.1113 61.4766 12.0185 61.4766 11.9256V1.20063C61.4766 1.08456 61.5441 0.991699 61.6568 0.991699H62.4453C62.5355 0.991699 62.6256 1.08456 62.6256 1.20063V10.9738H66.726V1.20063C66.726 1.08456 66.7936 0.991699 66.9062 0.991699H67.6947C67.7849 0.991699 67.875 1.08456 67.875 1.20063V10.9738H71.9754V1.20063C71.9754 1.08456 72.043 0.991699 72.1556 0.991699H72.9441C73.0117 0.991699 73.1019 1.08456 73.1019 1.20063Z" fill="black"/>
<path d="M82.5047 11.9953C82.4822 12.0649 82.4146 12.1113 82.347 12.1113H81.243C81.198 12.1113 81.1529 12.1113 81.1079 12.0649L76.5794 7.46848L76.3541 7.21313V11.9024C76.3541 12.0185 76.2865 12.0881 76.1739 12.0881H75.3853C75.2952 12.0881 75.2051 11.9953 75.2051 11.9024V1.20063C75.2051 1.08456 75.2952 0.991699 75.3853 0.991699H76.1739C76.264 0.991699 76.3541 1.08456 76.3541 1.20063V5.95956L81.0628 1.06134C81.0853 1.01491 81.1304 0.991699 81.1754 0.991699H82.1668C82.2343 0.991699 82.3019 1.03813 82.3245 1.13099C82.347 1.20063 82.3245 1.29348 82.2794 1.33991L77.2778 6.53991L82.4596 11.7863C82.5272 11.8328 82.5498 11.9256 82.5047 11.9953Z" fill="black"/>
<path d="M93.2589 4.4042C92.9886 3.70777 92.6056 3.1042 92.1099 2.59349C91.6143 2.08277 91.051 1.71134 90.3977 1.40956C89.7668 1.13098 89.0459 0.991699 88.3249 0.991699C87.6265 0.991699 86.9056 1.13098 86.2522 1.40956C85.5989 1.68813 85.0356 2.08277 84.54 2.59349C84.0443 3.1042 83.6613 3.70777 83.391 4.4042C83.0981 5.10063 82.9629 5.8667 82.9629 6.6792C82.9629 7.4917 83.0981 8.25777 83.391 8.9542C83.6613 9.65063 84.0443 10.2542 84.54 10.7649C85.0131 11.2756 85.5989 11.6703 86.2522 11.9488C87.5364 12.5292 89.091 12.5292 90.3977 11.9488C91.0285 11.6703 91.6143 11.2756 92.1099 10.7649C92.6056 10.2542 92.9886 9.67384 93.2589 8.9542C93.5293 8.25777 93.6645 7.4917 93.6645 6.6792C93.6645 5.8667 93.5293 5.10063 93.2589 4.4042ZM92.2 8.48991C91.9747 9.04706 91.6819 9.51134 91.2989 9.9292C90.9159 10.3238 90.4653 10.6488 89.9696 10.881C89.4514 11.1131 88.8882 11.2292 88.3249 11.2292C87.7617 11.2292 87.1985 11.1131 86.7028 10.881C86.1846 10.6488 85.734 10.3238 85.3736 9.9292C84.9906 9.53456 84.6977 9.04706 84.4724 8.48991C84.2696 7.93277 84.157 7.3292 84.157 6.6792C84.157 6.0292 84.2696 5.44884 84.4724 4.8917C84.6977 4.33456 84.9906 3.87027 85.3736 3.45241C85.7566 3.05777 86.1846 2.73277 86.7028 2.52384C87.7392 2.08277 88.9783 2.08277 89.9921 2.52384C90.5103 2.75598 90.9609 3.05777 91.3214 3.45241C91.7044 3.84706 91.9973 4.33456 92.2226 4.8917C92.4253 5.44884 92.538 6.0292 92.538 6.6792C92.5155 7.3292 92.4028 7.95598 92.2 8.48991Z" fill="black"/>
<path d="M103.166 11.856C103.189 11.9256 103.166 11.9953 103.144 12.0417C103.121 12.1113 103.054 12.1346 103.009 12.1346H102.152C102.085 12.1346 102.017 12.0881 101.995 12.0185L98.7279 2.87206L95.4385 12.0185C95.416 12.0881 95.3484 12.1346 95.2808 12.1346H94.4698C94.4247 12.1346 94.3571 12.1113 94.3346 12.0417C94.3121 11.9953 94.2895 11.9256 94.3121 11.856L98.1646 1.13099C98.1872 1.06134 98.2548 0.991699 98.3449 0.991699H99.1334C99.201 0.991699 99.2686 1.06134 99.2911 1.13099L103.166 11.856Z" fill="black"/>
<path d="M113.613 11.856L109.58 1.13099C109.558 1.03813 109.49 0.991699 109.423 0.991699H108.634C108.544 0.991699 108.499 1.03813 108.476 1.13099L104.466 11.856C104.443 11.9256 104.443 11.9953 104.488 12.0417C104.534 12.0881 104.579 12.1113 104.624 12.1113H105.435C105.502 12.1113 105.57 12.0649 105.592 11.9953L106.606 9.2792H111.428L112.441 11.9953C112.464 12.0649 112.532 12.1113 112.622 12.1113H113.455C113.523 12.1113 113.568 12.0881 113.613 12.0417C113.636 11.9953 113.636 11.9256 113.613 11.856ZM107.057 8.11848L109.039 2.80241L111 8.11848H107.057Z" fill="black"/>
</g>
<defs>
<clipPath id="clip0_1064_824">
<rect width="114" height="13" fill="white" transform="translate(0 0.991699)"/>
</clipPath>
</defs>
</svg>
