<svg width="24" height="24" viewBox="0 0 24 24" fill="none" xmlns="http://www.w3.org/2000/svg">
<rect width="24" height="24" rx="5" fill="url(#paint0_linear_1_11)"/>
<rect width="24" height="24" rx="5" fill="url(#paint1_linear_1_11)"/>
<rect width="24" height="24" rx="5" fill="url(#paint2_linear_1_11)"/>
<path d="M8.96154 16.1563L9.4249 16.427C10.2063 16.8827 11.095 17.1219 11.9996 17.1201C13.0123 17.1201 14.0022 16.8198 14.8441 16.2572C15.6861 15.6946 16.3424 14.895 16.7299 13.9594C17.1174 13.0239 17.2188 11.9944 17.0212 11.0012C16.8237 10.008 16.336 9.09575 15.62 8.37971C14.904 7.66366 13.9917 7.17603 12.9985 6.97848C12.0053 6.78092 10.9758 6.88231 10.0403 7.26983C9.10472 7.65735 8.30508 8.3136 7.74249 9.15558C7.1799 9.99755 6.87962 10.9875 6.87962 12.0001C6.87962 12.9191 7.1209 13.8004 7.57338 14.5755L7.84346 15.0388L7.42554 16.5755L8.96154 16.1563ZM5.60218 18.4001L6.46746 15.2206C5.89731 14.2432 5.59776 13.1316 5.59962 12.0001C5.59962 8.46538 8.4649 5.6001 11.9996 5.6001C15.5343 5.6001 18.3996 8.46538 18.3996 12.0001C18.3996 15.5348 15.5343 18.4001 11.9996 18.4001C10.8686 18.4019 9.75748 18.1026 8.78042 17.5329L5.60218 18.4001ZM9.68986 8.99722C9.77561 8.99082 9.86201 8.99082 9.94777 8.99466C9.98233 8.99722 10.0169 9.00106 10.0515 9.0049C10.1532 9.01642 10.2652 9.0785 10.303 9.16426C10.4937 9.59689 10.6793 10.0327 10.8585 10.4699C10.8982 10.5671 10.8745 10.6919 10.799 10.8135C10.747 10.8958 10.6909 10.9752 10.6307 11.0516C10.5583 11.1444 10.4028 11.3147 10.4028 11.3147C10.4028 11.3147 10.3395 11.3902 10.3638 11.4843C10.3727 11.5201 10.4022 11.5719 10.4291 11.6155L10.4668 11.6763C10.6307 11.9495 10.8508 12.2267 11.1196 12.4878C11.1964 12.562 11.2713 12.6382 11.3519 12.7092C11.6515 12.9735 11.9907 13.1892 12.3567 13.3492L12.3599 13.3505C12.4143 13.3742 12.4419 13.387 12.5212 13.4209C12.5609 13.4375 12.6019 13.4523 12.6435 13.4631C12.6864 13.4741 12.7317 13.472 12.7735 13.4572C12.8153 13.4424 12.8518 13.4155 12.8783 13.3799C13.3417 12.8187 13.3839 12.7822 13.3878 12.7822V12.7835C13.42 12.7534 13.4582 12.7306 13.4999 12.7166C13.5417 12.7026 13.5859 12.6977 13.6297 12.7022C13.6681 12.7047 13.7071 12.7118 13.743 12.7278C14.0828 12.8833 14.639 13.1259 14.639 13.1259L15.0115 13.2929C15.0742 13.323 15.1311 13.394 15.1331 13.4625C15.1356 13.5054 15.1395 13.5745 15.1247 13.7012C15.1043 13.867 15.0543 14.066 15.0044 14.1703C14.9702 14.2415 14.9248 14.3068 14.87 14.3636C14.8054 14.4314 14.7347 14.4931 14.6588 14.5479C14.6325 14.5677 14.6059 14.5869 14.5788 14.6055C14.4992 14.656 14.4174 14.703 14.3337 14.7463C14.1689 14.8339 13.9869 14.8841 13.8006 14.8935C13.6822 14.8999 13.5638 14.9089 13.4447 14.9025C13.4396 14.9025 13.0812 14.8468 13.0812 14.8468C12.1713 14.6075 11.3298 14.1591 10.6236 13.5374C10.479 13.41 10.3452 13.2731 10.2083 13.1367C9.63866 12.5703 9.20858 11.9591 8.94746 11.3819C8.8138 11.0985 8.74161 10.7901 8.73562 10.4769C8.73298 10.0883 8.86 9.70996 9.09658 9.4017C9.1433 9.34154 9.18746 9.27882 9.26362 9.2065C9.3449 9.1297 9.3961 9.08874 9.45178 9.06058C9.52581 9.02348 9.60657 9.00171 9.68922 8.99658L9.68986 8.99722Z" fill="white"/>
<defs>
<linearGradient id="paint0_linear_1_11" x1="12" y1="0" x2="12" y2="43.7143" gradientUnits="userSpaceOnUse">
<stop stop-color="#27B638"/>
<stop offset="1" stop-color="#1F932D"/>
</linearGradient>
<linearGradient id="paint1_linear_1_11" x1="-7.87302" y1="14.5161" x2="25.0159" y2="14.5158" gradientUnits="userSpaceOnUse">
<stop offset="0.265795" stop-color="#833BEE"/>
<stop offset="1" stop-color="#2EAFFF"/>
</linearGradient>
<linearGradient id="paint2_linear_1_11" x1="12" y1="0" x2="12" y2="43.7143" gradientUnits="userSpaceOnUse">
<stop stop-color="#27B638"/>
<stop offset="1" stop-color="#1F932D"/>
</linearGradient>
</defs>
</svg>
